<svg width="9" height="14" viewBox="0 0 9 14" fill="none" xmlns="http://www.w3.org/2000/svg">
    <path fill-rule="evenodd" clip-rule="evenodd" d="M4.62032 0C5.74906 0 6.66408 1.19391 6.66408 2.66667C6.66408 3.03486 6.43532 3.33333 6.15314 3.33333C5.87096 3.33333 5.6422 3.03486 5.6422 2.66667C5.6422 1.93029 5.18469 1.33333 4.62032 1.33333C4.05595 1.33333 3.59844 1.93029 3.59844 2.66667V4H7.17502C8.02157 4 8.70784 4.89543 8.70784 6V11.3333C8.70784 12.4379 8.02157 13.3333 7.17502 13.3333H2.06562C1.21907 13.3333 0.532806 12.4379 0.532806 11.3333V6C0.532806 4.89543 1.21907 4 2.06562 4H2.57656V2.66667C2.57656 1.19391 3.49159 0 4.62032 0ZM7.17502 5.33333H2.06562C1.78344 5.33333 1.55469 5.63181 1.55469 6V11.3333C1.55469 11.7015 1.78344 12 2.06562 12H7.17502C7.4572 12 7.68596 11.7015 7.68596 11.3333V6C7.68596 5.63181 7.4572 5.33333 7.17502 5.33333ZM4.62032 6.66667C5.46687 6.66667 6.15314 7.5621 6.15314 8.66667C6.15314 9.77124 5.46687 10.6667 4.62032 10.6667C3.77377 10.6667 3.0875 9.77124 3.0875 8.66667C3.0875 7.5621 3.77377 6.66667 4.62032 6.66667ZM4.62032 8C4.33814 8 4.10938 8.29848 4.10938 8.66667C4.10938 9.03486 4.33814 9.33333 4.62032 9.33333C4.90251 9.33333 5.13126 9.03486 5.13126 8.66667C5.13126 8.29848 4.90251 8 4.62032 8Z" fill="#6B7394"/>
</svg>
