<svg width="409" height="79" viewBox="0 0 409 79" fill="none" xmlns="http://www.w3.org/2000/svg">
<g clip-path="url(#clip0)">
<path fill-rule="evenodd" clip-rule="evenodd" d="M404.89 73.52C404.94 74.02 405.05 74.41 405.22 74.71H408.11C407.74 74.28 407.65 73.9601 407.63 73.6101L407.65 67.8301C407.65 65.3101 406.32 63.78 402.89 63.78C399.7 63.78 398.37 65.5301 398.43 67.3001L400.93 67.3601C400.93 66.5801 401.53 65.81 402.99 65.81C404.37 65.81 404.84 66.48 404.84 67C404.84 67.43 404.56 67.82 403.79 67.95L402.17 68.2301C399.83 68.6401 399.22 69.0901 398.77 69.4801C398.15 70.0401 397.8 70.8201 397.8 71.68C397.8 73.42 399.18 75 401.83 75C403.37 75.01 404.27 74.48 404.89 73.52ZM404.89 69.1501V70.49C404.89 71.96 403.95 72.9101 402.33 72.9101C401.14 72.9101 400.58 72.2101 400.58 71.5501C400.58 71.0501 400.75 70.51 402.54 70L403.75 69.6601C404.31 69.5301 404.66 69.3401 404.89 69.1501ZM390.93 74.71H393.73L397.35 64.17H394.46L392.35 71.1101L390.26 64.1901H387.37L390.93 74.71ZM382.97 74.71H385.8V64.1501H382.97V74.71ZM382.98 62.5601H385.82V60.03H382.98V62.5601ZM380.99 74.71V72.53H379.94C379.59 72.53 379.27 72.36 379.12 72.14C379.06 72.05 378.99 71.9 378.99 71.32V66.1H380.89V64.1601H378.99L378.97 60.84H376.16V64.1601H374.67V66.1H376.16V71.5501C376.16 73.9401 377.13 74.7201 378.7 74.7201H380.99V74.71ZM370.13 73.52C370.18 74.02 370.3 74.41 370.47 74.71H373.36C372.99 74.28 372.89 73.9601 372.87 73.6101L372.89 67.8301C372.89 65.3101 371.57 63.78 368.13 63.78C364.94 63.78 363.62 65.5301 363.67 67.3001L366.17 67.3601C366.17 66.5801 366.77 65.81 368.22 65.81C369.6 65.81 370.07 66.48 370.07 67C370.07 67.43 369.79 67.82 369.02 67.95L367.4 68.2301C365.07 68.6401 364.45 69.0901 364 69.4801C363.38 70.0401 363.03 70.8201 363.03 71.68C363.03 73.42 364.41 75 367.06 75C368.61 75.01 369.51 74.48 370.13 73.52ZM370.13 69.1501V70.49C370.13 71.96 369.19 72.9101 367.57 72.9101C366.38 72.9101 365.81 72.2101 365.81 71.5501C365.81 71.0501 365.98 70.51 367.77 70L368.98 69.6601C369.55 69.5301 369.9 69.3401 370.13 69.1501ZM356.45 74.71H359.28L359.3 70.02C359.3 68.45 359.69 67.7101 360.14 67.2201C360.68 66.6601 361.3 66.38 362.08 66.38C362.25 66.38 362.4 66.4 362.56 66.42V63.94C362.43 63.9 362.2 63.87 361.96 63.87C360.73 63.87 359.65 64.67 359.33 65.75L359.24 64.1601H356.46L356.45 74.71ZM348.93 75.1C352.14 75.1 354.47 72.84 354.47 69.39C354.47 66.07 352.18 63.75 348.89 63.75C345.7 63.75 343.37 66.05 343.37 69.39C343.37 72.86 345.72 75.1 348.93 75.1ZM348.92 72.88C347.57 72.88 346.27 71.85 346.27 69.5C346.27 66.98 347.54 65.9801 348.92 65.9801C350.32 65.9801 351.59 66.98 351.59 69.39C351.58 71.88 350.29 72.88 348.92 72.88ZM333.86 73.4801C334.45 74.4501 335.5 75.06 336.96 75.06C339.83 75.06 341.63 72.3901 341.63 69.3701C341.63 66.5001 339.87 63.8101 336.98 63.8101C335.71 63.8101 334.67 64.33 333.94 65.25L333.81 64.1901L331.01 64.21V78.17H333.84L333.86 73.4801ZM336.4 72.88C335.04 72.88 333.88 71.9601 333.88 69.6901C333.88 67.1501 335.13 66.2601 336.29 66.2601C337.48 66.2601 338.74 67.2101 338.74 69.5401C338.73 71.0901 338.07 72.86 336.4 72.88ZM323.34 74.71H326.17L326.19 70.02C326.19 68.45 326.58 67.7101 327.03 67.2201C327.57 66.6601 328.19 66.38 328.97 66.38C329.14 66.38 329.28 66.4 329.45 66.42V63.94C329.32 63.9 329.1 63.87 328.86 63.87C327.63 63.87 326.55 64.67 326.23 65.75L326.14 64.1601H323.36L323.34 74.71ZM315.82 75.1C319.03 75.1 321.36 72.84 321.36 69.39C321.36 66.07 319.06 63.75 315.78 63.75C312.59 63.75 310.25 66.05 310.25 69.39C310.26 72.86 312.61 75.1 315.82 75.1ZM315.8 72.88C314.46 72.88 313.15 71.85 313.15 69.5C313.15 66.98 314.42 65.9801 315.8 65.9801C317.2 65.9801 318.47 66.98 318.47 69.39C318.47 71.88 317.18 72.88 315.8 72.88ZM305.82 70.89C305.67 71.69 305.43 72.05 305.02 72.34C304.65 72.62 304.22 72.77 303.64 72.77C302.37 72.77 301.19 71.85 301.19 69.5C301.19 66.91 302.44 65.96 303.73 65.96C304.76 65.96 305.6 66.71 305.76 67.75L308.48 67.6201C308.26 65.4201 306.54 63.7201 303.67 63.7201C301.58 63.7201 300.13 64.5301 299.17 65.9401C298.53 66.8601 298.16 68.0001 298.16 69.4701C298.16 71.6101 299.02 73.2 300.35 74.21C301.19 74.81 302.2 75.18 303.63 75.18C304.62 75.18 305.22 75.01 305.74 74.82C307.32 74.22 308.3 73.03 308.5 71L305.82 70.89ZM284.75 74.71H287.59V60.03H284.77L284.75 74.71ZM279.49 73.52C279.55 74.02 279.66 74.41 279.83 74.71H282.72C282.35 74.28 282.25 73.9601 282.24 73.6101L282.26 67.8301C282.26 65.3101 280.94 63.78 277.5 63.78C274.31 63.78 272.99 65.5301 273.04 67.3001L275.54 67.3601C275.54 66.5801 276.13 65.81 277.59 65.81C278.97 65.81 279.44 66.48 279.44 67C279.44 67.43 279.16 67.82 278.4 67.95L276.77 68.2301C274.44 68.6401 273.82 69.0901 273.37 69.4801C272.76 70.0401 272.4 70.8201 272.4 71.68C272.4 73.42 273.78 75 276.43 75C277.98 75.01 278.88 74.48 279.49 73.52ZM279.49 69.1501V70.49C279.49 71.96 278.56 72.9101 276.93 72.9101C275.74 72.9101 275.17 72.2101 275.17 71.5501C275.17 71.0501 275.34 70.51 277.13 70L278.34 69.6601C278.91 69.5301 279.27 69.3401 279.49 69.1501ZM267.64 73.52L267.81 74.71H270.48V64.17H267.67V70.07C267.67 71.69 266.7 72.5101 265.56 72.5101C264.49 72.5101 263.84 71.9501 263.84 70.4801V64.17H261V71.06C261 71.17 261 71.3001 261 71.4101C261 72.8101 261.41 73.53 262.05 74.13C262.67 74.71 263.54 75.06 264.68 75.06C265.98 75.06 267.01 74.51 267.64 73.52ZM249.27 71.2C249.33 73.18 251 75.0801 254.22 75.0801C257.5 75.0801 258.96 73.32 258.96 71.42C258.96 70.76 258.72 70.09 258.31 69.57C257.92 69.09 257.41 68.7101 256.16 68.4101L253.12 67.7C252.51 67.55 252.24 67.16 252.24 66.77C252.24 66.36 252.63 65.7201 254 65.7201C255.49 65.7201 256.17 66.5001 256.17 67.3701L258.68 67.31C258.63 66.26 258.07 65.2001 257.17 64.5501C256.56 64.1001 255.57 63.73 254.04 63.73C251.02 63.73 249.68 65.37 249.68 67.18C249.68 68.0201 249.92 68.6201 250.41 69.1601C250.78 69.5701 251.25 69.8901 252.42 70.1501L254.7 70.6501C256.02 70.9501 256.18 71.36 256.18 71.84C256.18 72.31 255.75 73.0501 254.18 73.0501C252.71 73.0501 251.96 72.2301 251.87 71.1501L249.27 71.2ZM244.42 74.71H247.25V64.1501H244.42V74.71ZM244.43 62.5601H247.27V60.03H244.43V62.5601ZM236.45 74.71H239.25L242.87 64.17H239.98L237.88 71.1101L235.79 64.1901H232.9L236.45 74.71ZM217.42 75.1201C220.83 75.1201 223.11 72.84 223.11 69.39C223.11 66.01 220.8 63.7401 217.51 63.7401C214.32 63.7401 211.95 66.0301 211.95 69.4101C211.96 72.8401 214.32 75.1201 217.42 75.1201ZM217.59 72.9001C216.12 72.9001 214.87 71.8501 214.87 69.4101C214.87 67.0401 216.14 65.9801 217.57 65.9801C218.95 65.9801 220.2 66.91 220.2 69.49C220.2 71.97 218.86 72.9001 217.59 72.9001ZM216.77 62.92H218.48L221.43 60.0401H218.41L216.77 62.92ZM207.66 74.71H210.5V64.1501H207.66V74.71ZM207.68 62.5601H210.51V60.03H207.68V62.5601ZM203 70.89C202.85 71.69 202.61 72.05 202.2 72.34C201.83 72.62 201.4 72.77 200.82 72.77C199.55 72.77 198.38 71.85 198.38 69.5C198.38 66.91 199.63 65.96 200.91 65.96C201.94 65.96 202.78 66.71 202.95 67.75L205.67 67.6201C205.44 65.4201 203.73 63.7201 200.85 63.7201C198.76 63.7201 197.31 64.5301 196.35 65.9401C195.72 66.8601 195.35 68.0001 195.35 69.4701C195.35 71.6101 196.21 73.2 197.53 74.21C198.37 74.81 199.38 75.18 200.81 75.18C201.8 75.18 202.4 75.01 202.92 74.82C204.51 74.22 205.48 73.03 205.68 71L203 70.89ZM190.5 73.52C190.56 74.02 190.67 74.41 190.84 74.71H193.73C193.36 74.28 193.26 73.9601 193.25 73.6101L193.27 67.8301C193.27 65.3101 191.95 63.78 188.52 63.78C185.33 63.78 184 65.5301 184.06 67.3001L186.56 67.3601C186.56 66.5801 187.16 65.81 188.62 65.81C190 65.81 190.47 66.48 190.47 67C190.47 67.43 190.19 67.82 189.42 67.95L187.79 68.2301C185.46 68.6401 184.85 69.0901 184.4 69.4801C183.78 70.0401 183.43 70.8201 183.43 71.68C183.43 73.42 184.81 75 187.46 75C188.99 75.01 189.88 74.48 190.5 73.52ZM190.5 69.1501V70.49C190.5 71.96 189.57 72.9101 187.94 72.9101C186.75 72.9101 186.19 72.2101 186.19 71.5501C186.19 71.0501 186.36 70.51 188.15 70L189.37 69.6601C189.92 69.5301 190.28 69.3401 190.5 69.1501ZM179.19 70.89C179.04 71.69 178.8 72.05 178.39 72.34C178.02 72.62 177.59 72.77 177.01 72.77C175.74 72.77 174.56 71.85 174.56 69.5C174.56 66.91 175.81 65.96 177.1 65.96C178.13 65.96 178.97 66.71 179.13 67.75L181.85 67.6201C181.62 65.4201 179.91 63.7201 177.03 63.7201C174.94 63.7201 173.49 64.5301 172.53 65.9401C171.9 66.8601 171.53 68.0001 171.53 69.4701C171.53 71.6101 172.39 73.2 173.71 74.21C174.55 74.81 175.56 75.18 176.99 75.18C177.98 75.18 178.58 75.01 179.1 74.82C180.69 74.22 181.66 73.03 181.86 71L179.19 70.89ZM166.71 74.71H169.54V64.1501H166.71V74.71ZM166.73 62.5601H169.57V60.03H166.73V62.5601ZM155.05 74.71H157.89L157.91 68.81C157.91 67.95 158.08 67.58 158.3 67.24C158.69 66.7 159.34 66.34 160.04 66.34C161.01 66.34 161.72 67 161.72 68.17V74.7H164.56V67.25C164.56 65.27 163.11 63.78 160.92 63.78C159.41 63.78 158.35 64.5601 157.99 65.4101L157.86 64.18L155.08 64.1601L155.05 74.71ZM150.01 73.52L150.18 74.71H152.85V64.17H150.03V70.07C150.03 71.69 149.06 72.5101 147.92 72.5101C146.86 72.5101 146.21 71.9501 146.21 70.4801V64.17H143.37V71.06C143.37 71.17 143.37 71.3001 143.37 71.4101C143.37 72.8101 143.78 73.53 144.42 74.13C145.04 74.71 145.91 75.06 147.05 75.06C148.35 75.06 149.38 74.51 150.01 73.52ZM125.76 74.71H128.59L128.61 68.6101C128.61 67.1 129.45 66.3301 130.59 66.3301C131.35 66.3301 131.8 66.7001 132.01 67.2201C132.06 67.3401 132.14 67.5401 132.14 68.4001V74.71H134.95V68.4401C134.95 67.0801 135.79 66.2901 136.91 66.2901C137.88 66.2901 138.51 66.87 138.51 68.1V74.7H141.31L141.29 67.2901C141.23 65.0901 139.81 63.8 137.89 63.8C136.45 63.8 135.3 64.51 134.66 65.64C134.12 64.56 132.95 63.8101 131.56 63.8101C130.12 63.8101 129.17 64.43 128.62 65.49L128.53 64.14L125.77 64.1201L125.76 74.71ZM118.24 75.1C121.45 75.1 123.78 72.84 123.78 69.39C123.78 66.07 121.49 63.75 118.2 63.75C115.01 63.75 112.68 66.05 112.68 69.39C112.68 72.86 115.03 75.1 118.24 75.1ZM118.22 72.88C116.87 72.88 115.57 71.85 115.57 69.5C115.57 66.98 116.84 65.9801 118.22 65.9801C119.62 65.9801 120.89 66.98 120.89 69.39C120.89 71.88 119.6 72.88 118.22 72.88ZM108.09 69.82C108.05 70.27 107.77 70.9801 107.48 71.3701C106.96 72.0801 106.01 72.6 104.79 72.6C102.68 72.6 100.65 70.9601 100.65 67.2201C100.65 63.5301 102.63 61.96 104.7 61.96C106.49 61.96 107.64 62.9101 108 64.5501L110.87 64.4001C110.64 62.9601 110.12 61.97 109.28 61.18C108.31 60.24 106.84 59.55 104.65 59.55C99.05 59.55 97.56 64.3301 97.56 67.2201C97.56 72.2601 100.83 75.1901 104.67 75.1901C107.84 75.1901 110.84 73.2501 111.09 69.8701L108.09 69.82Z" fill="#85BC22"/>
<path fill-rule="evenodd" clip-rule="evenodd" d="M249.56 33.12L274.96 33.18C274.96 23.06 270.35 12.26 257.56 12.26C244.46 12.26 240.4 22.69 240.4 30.51C240.4 41.91 247.98 48.94 257.49 48.94C267.19 48.94 272.89 43.73 274.29 37.78L265.07 37.12C263.31 40.33 260.88 41.61 257.92 41.61C253.57 41.61 250.05 38.64 249.56 33.12ZM249.93 26.45C250.48 22.26 253.87 19.42 257.38 19.42C261.14 19.42 264.41 22.02 265.02 26.45H249.93ZM203.24 47.73H212.46L212.52 28.57C212.52 25.78 213.06 24.57 213.79 23.48C215.07 21.72 217.19 20.57 219.43 20.57C222.58 20.57 224.89 22.69 224.89 26.51V47.73H234.11V23.54C234.11 17.11 229.38 12.26 222.28 12.26C217.37 12.26 213.91 14.81 212.76 17.54L212.33 13.54L203.3 13.48L203.24 47.73ZM188.09 35.3C187.6 37.91 186.81 39.06 185.48 40.03C184.27 40.94 182.87 41.42 180.99 41.42C176.87 41.42 173.05 38.45 173.05 30.81C173.05 22.38 177.11 19.29 181.3 19.29C184.63 19.29 187.36 21.72 187.91 25.11L196.76 24.68C196.03 17.53 190.45 12.01 181.12 12.01C174.33 12.01 169.6 14.62 166.51 19.22C164.45 22.19 163.24 25.89 163.24 30.68C163.24 37.65 166.03 42.81 170.33 46.08C173.06 48.02 176.34 49.23 181 49.23C184.27 49.23 186.16 48.69 187.85 48.08C193 46.14 196.15 42.26 196.88 35.65L188.09 35.3ZM132.06 33.12L157.53 33.18C157.53 23.06 152.92 12.26 140.13 12.26C126.97 12.26 122.91 22.69 122.91 30.51C122.91 41.91 130.49 48.94 140.07 48.94C149.77 48.94 155.47 43.73 156.86 37.78L147.65 37.12C145.89 40.33 143.46 41.61 140.5 41.61C136.13 41.61 132.55 38.64 132.06 33.12ZM132.43 26.45C132.98 22.26 136.43 19.42 139.95 19.42C143.71 19.42 146.98 22.02 147.59 26.45H132.43ZM118.12 47.73V40.64H114.72C113.63 40.64 112.54 40.09 112.05 39.36C111.87 39.06 111.63 38.57 111.63 36.69V19.72H117.81V13.42H111.63L111.57 2.63H102.42V13.42H97.57V19.72H102.42V37.43C102.42 45.19 105.57 47.74 110.67 47.74H118.12V47.73Z" fill="#85BC22"/>
<path fill-rule="evenodd" clip-rule="evenodd" d="M298.92 41.79C294.49 41.79 290.73 38.82 290.73 31.42C290.73 23.17 294.79 20.26 298.55 20.26C302.43 20.26 306.49 23.35 306.49 30.93C306.5 35.97 304.38 41.73 298.92 41.79ZM290.67 43.73C292.61 46.88 296.01 48.88 300.74 48.88C310.07 48.88 315.89 40.21 315.89 30.39C315.89 21.05 310.19 12.33 300.86 12.33C296.67 12.33 293.28 14.03 290.92 17L290.49 13.55L281.4 13.61V58.96H290.62L290.67 43.73ZM322.32 47.73H331.54V0.0100098H322.39L322.32 47.73ZM360.88 29.66L360.82 34.03C360.82 38.82 357.79 41.91 352.52 41.91C348.64 41.91 346.82 39.61 346.82 37.49C346.82 35.85 347.37 34.09 353.19 32.45L357.13 31.36C358.94 30.87 360.09 30.27 360.88 29.66ZM360.82 43.85C361 45.49 361.37 46.76 361.91 47.73H371.31C370.1 46.34 369.79 45.3 369.73 44.15L369.79 25.35C369.79 17.17 365.49 12.19 354.33 12.19C343.96 12.19 339.66 17.89 339.84 23.65L347.96 23.83C347.96 21.28 349.9 18.8 354.63 18.8C359.11 18.8 360.63 20.98 360.63 22.68C360.63 24.07 359.78 25.35 357.23 25.77L351.96 26.68C344.44 28.01 342.38 29.47 340.92 30.74C338.92 32.56 337.77 35.11 337.77 37.9C337.77 43.54 342.26 48.69 350.87 48.69C355.91 48.7 358.82 47 360.82 43.85ZM376.58 36.33C376.76 42.76 382.22 48.94 392.71 48.94C403.38 48.94 408.11 43.24 408.11 37.05C408.11 34.93 407.32 32.75 405.99 31.05C404.71 29.47 403.08 28.26 399.02 27.29L389.14 24.99C387.08 24.51 386.23 23.23 386.23 21.96C386.23 20.63 387.5 18.56 391.99 18.56C396.84 18.56 399.02 21.11 399.09 23.9L407.21 23.72C407.03 20.32 405.21 16.87 402.3 14.75C400.3 13.29 397.09 12.08 392.11 12.08C382.23 12.08 377.86 17.42 377.86 23.3C377.86 26.03 378.65 27.97 380.22 29.73C381.43 31.06 382.95 32.09 386.77 32.94L394.23 34.58C398.53 35.55 399.08 36.88 399.08 38.46C399.08 39.97 397.62 42.4 392.53 42.4C387.74 42.4 385.25 39.73 384.95 36.22L376.58 36.33Z" fill="#C3D200"/>
<path fill-rule="evenodd" clip-rule="evenodd" d="M8.68999 1.41996L67.78 0.10996C72.61 -4.00469e-05 76.64 3.85996 76.75 8.68996L78.06 67.78C78.17 72.61 74.31 76.64 69.48 76.75L10.39 78.06C5.55999 78.17 1.52999 74.31 1.41999 69.48L0.10999 10.39C-9.52929e-06 5.56996 3.85999 1.52996 8.68999 1.41996Z" fill="#2C2A86" stroke="black" stroke-width="0.216" stroke-miterlimit="22.9256"/>
<path fill-rule="evenodd" clip-rule="evenodd" d="M22.16 1.12001L23.82 1.08001L25.72 1.04001C26.44 1.40001 27.05 1.98001 27.42 2.75001L31.26 10.61L52.04 0.46001L61.1 0.26001L32.93 14.02L48.55 45.99L45.14 47.66L29.52 15.69L14.25 23.15C13.66 23.44 13.42 24.13 13.71 24.72L23.33 44.42C23.64 45.04 24.33 45.54 25.02 45.2L38.59 38.57L40.26 41.98L26.69 48.61L25.62 49.13C23.73 50.05 21.49 49.28 20.57 47.4L9.78999 25.33C8.87999 23.46 9.62999 21.18 11.52 20.26L27.86 12.28L24.83 6.10001C24.36 5.15001 23.75 4.55001 22.78 5.02001L7.37999 12.55C5.48999 13.47 3.24999 12.7 2.32999 10.81L0.609985 7.29001C1.10999 5.88001 1.95999 4.63001 3.05999 3.65001L5.73998 9.13001L22.16 1.12001ZM77.41 38.47V38.51L67.46 43.37L65.79 39.96L77.31 34.33L77.41 38.47ZM77.91 69.59L54.05 20.76C53.8 20.24 53.74 19.52 54.33 19.23L66.25 13.4C66.87 13.1 67.3 13.53 67.6 14.14L71.17 21.44C71.45 22.01 71.3 22.75 70.69 23.05L60.22 28.17L61.88 31.58L73.37 25.96C75.24 25.05 76.04 22.79 75.12 20.9L73.16 16.88L73.11 16.78L70.45 11.33C69.54 9.46001 67.25 8.69001 65.38 9.60001L51.81 16.23C49.93 17.15 49.16 19.41 50.08 21.28L60.94 43.5C59.67 43.41 58.35 43.65 57.12 44.25L37.63 53.77L35.12 55L18.47 63.14C16.58 64.06 14.34 63.29 13.42 61.41L0.659985 35.33L0.859985 44.35L10.01 63.07C11.85 66.84 16.36 68.39 20.14 66.55L36.79 58.42L43.06 55.36L58.79 47.67C60.54 46.82 62.64 47.44 63.66 49.09L75.77 73.88C76.85 72.69 77.61 71.21 77.91 69.59ZM63.46 76.88L59.28 76.97L55.43 69.09C55.05 68.33 54.15 68 53.39 68.37L38.02 75.88L38.78 77.43L34.6 77.52L32.94 74.12L53.09 64.27C54.96 63.36 57.25 64.14 58.17 66.01L63.46 76.88Z" fill="white"/>
</g>
<defs>
<clipPath id="clip0">
<rect width="408.11" height="78.17" fill="white"/>
</clipPath>
</defs>
</svg>
